<svg width="36" height="51" viewBox="0 0 36 51" fill="none" xmlns="http://www.w3.org/2000/svg">
<path d="M7.61027 32.3169V24.2636M7.61027 24.2636V11.0982C7.61027 8.87356 9.38315 7.07153 11.5762 7.07153C13.7668 7.07153 15.5421 8.87356 15.5421 11.0982V21.9637L22.517 23.0615C26.8885 23.7269 29.0743 24.0596 30.614 24.9971C33.1568 26.5417 35.0001 28.8658 35.0001 32.2562C35.0001 34.6168 34.4245 36.2002 33.0281 40.4576C32.1392 43.1582 31.6972 44.5085 30.9735 45.5795C29.7905 47.332 28.0332 48.6169 26.0045 49.2127C24.7781 49.5721 23.3743 49.5721 20.5693 49.5721H17.3854C13.3393 49.5721 11.3188 49.5721 9.57987 48.8023C8.79376 48.4537 8.06176 47.994 7.40627 47.4374C5.9491 46.2061 5.04566 44.3701 3.23635 40.698C1.76947 37.7181 1.03603 36.2294 1.00203 34.6872C0.985033 33.9902 1.07489 33.2956 1.26189 32.6253C1.67961 31.1414 2.76034 29.8883 4.91937 27.382L7.61027 24.2636Z" stroke="black" stroke-width="2" stroke-linecap="round" stroke-linejoin="round"/>
<path d="M21.1945 10.7144C21.1945 8.138 20.171 5.6671 18.3492 3.84529C16.5274 2.02348 14.0565 1 11.48 1C8.90362 1 6.43272 2.02348 4.61091 3.84529C2.78911 5.6671 1.76563 8.138 1.76562 10.7144" stroke="black" stroke-width="2" stroke-linecap="round" stroke-linejoin="round"/>
</svg>
